# xmcd
#
# Track frame offsets: 
#        180
#        15732
#        31143
#        45768
#        60168
#        72188
#        87411
#        102213
#        118505
#        130951
#
# Disc length: 1925 seconds
#
# Revision: 0
# Processed by: cddbd v1.5.2PL0 Copyright (c) Steve Scherf et al.
# Submitted via: ExactAudioCopy v1.0b3
#
DISCID=7207830a
DTITLE=John Sutton - The First Time (But Not The Last Time)
DYEAR=1997
DGENRE=Country
TTITLE0=The First Time (But Not The Last Time)
TTITLE1=Fall Forward In Love
TTITLE2=Without You
TTITLE3=Nobody Sees It But Me
TTITLE4=My Seniorita
TTITLE5=Time Stands Still
TTITLE6=Are You Sad Like Me
TTITLE7=Like Your Doing Now
TTITLE8=I'll Make You See
TTITLE9=Mary And Murphy Have Mercy On Me
EXTD=
EXTT0=
EXTT1=
EXTT2=
EXTT3=
EXTT4=
EXTT5=
EXTT6=
EXTT7=
EXTT8=
EXTT9=
PLAYORDER=
